PathFileType	4	(X/Y/Z)	C:\Users\dbl\Desktop\LZH\BX\Trimmed_Trimmed_bx_y_10_901.trc
DataRate	CameraRate	NumFrames	NumMarkers	Units	OrigDataRate	OrigDataStartFrame	OrigNumFrames
50.00	50.00	       7	43	mm	50.00	124	       247
Frame#	Time	Top.Head			R.Acromium			L.Acromium			Sternum			R.ASIS			L.ASIS			V.Sacral			R.Thigh.Upper			R.Thigh.Front			R.Thigh.Rear			R.Knee.Lat			R.Knee.Med			R.Shank.Upper			R.Shank.Front			R.Shank.Rear			R.Ankle.Lat			R.Midfoot.Lat			R.Toe.Lat			R.Toe.Tip			R.Toe.Med			R.Ankle.Med			R.Midfoot.Sup			R.Heel			L.Thigh.Upper			L.Thigh.Front			L.Thigh.Rear			L.Knee.Lat			L.Knee.Med			L.Shank.Upper			L.Shank.Front			L.Shank.Rear			L.Ankle.Lat			L.Midfoot.Lat			L.Toe.Lat			L.Toe.Tip			L.Toe.Med			L.Ankle.Med			L.Midfoot.Sup			L.Heel			origin1 front left			origin2 front right			origin 3 back right			origin 4 back leftt			
		X1	Y1	Z1	X2	Y2	Z2	X3	Y3	Z3	X4	Y4	Z4	X5	Y5	Z5	X6	Y6	Z6	X7	Y7	Z7	X8	Y8	Z8	X9	Y9	Z9	X10	Y10	Z10	X11	Y11	Z11	X12	Y12	Z12	X13	Y13	Z13	X14	Y14	Z14	X15	Y15	Z15	X16	Y16	Z16	X17	Y17	Z17	X18	Y18	Z18	X19	Y19	Z19	X20	Y20	Z20	X21	Y21	Z21	X22	Y22	Z22	X23	Y23	Z23	X24	Y24	Z24	X25	Y25	Z25	X26	Y26	Z26	X27	Y27	Z27	X28	Y28	Z28	X29	Y29	Z29	X30	Y30	Z30	X31	Y31	Z31	X32	Y32	Z32	X33	Y33	Z33	X34	Y34	Z34	X35	Y35	Z35	X36	Y36	Z36	X37	Y37	Z37	X38	Y38	Z38	X39	Y39	Z39	X40	Y40	Z40	X41	Y41	Z41	X42	Y42	Z42	X43	Y43	Z43	

124	2.460	-108.19592	228.35266	1445.38318	-311.20041	56.07653	1229.86682	-313.03262	418.40878	1241.86719	-396.77863	255.92259	1260.14612	-669.03467	161.19766	1010.84265	-547.03918	384.63800	1032.21533	-852.87439	249.83308	1093.27271	-729.39056	92.86427	879.23621	-673.11121	147.99097	834.56683	-765.40021	86.21217	735.17719	-746.02832	122.95970	596.90393	-720.33862	227.53365	558.91968	-765.70837	122.41398	528.29419	-684.37067	171.12404	546.78107	-788.29645	124.27556	454.46176	-693.82849	141.00369	212.21449	-617.43170	75.82828	165.13110	-572.69659	48.77670	158.41673	-493.75534	93.18687	160.95692	-532.90759	143.30298	165.32408	-642.37427	213.72334	224.60333	-593.77905	186.26817	173.59998	-718.11499	211.23158	170.50537	-710.30121	433.54816	871.64673	-660.66913	371.38675	829.79980	-740.61902	445.92139	739.57867	-748.76770	418.26862	613.29462	-709.82336	312.31866	568.90460	-743.68268	415.63846	552.34882	-687.60547	371.81332	540.16254	-784.00201	423.86420	491.26971	-685.00323	419.24829	211.35352	-584.94147	468.79761	164.14178	-545.89795	480.41034	158.72653	-488.79214	427.43698	166.78432	-525.77637	387.76199	176.89903	-648.77942	330.52328	210.52135	-595.74579	349.88382	171.62213	-731.21069	345.53201	165.93892	-443.85361	448.93622	146.82242	-450.70233	74.96223	144.67976	-806.41174	82.82165	142.50391	-799.17151	457.93497	145.42513	
125	2.480	-103.93115	227.97713	1430.64124	-306.80035	56.49457	1216.45972	-308.16220	417.06070	1227.78577	-394.51132	255.87874	1256.29004	-671.12091	162.10249	1009.12830	-534.30640	385.87976	1032.42139	-854.06134	249.90117	1094.49963	-733.15021	92.55853	878.77179	-676.60889	147.81236	833.83698	-769.03735	86.10028	734.38770	-748.27081	122.89790	596.44305	-722.19165	227.33989	558.61920	-767.62463	122.38471	527.79456	-686.34839	171.04266	546.51526	-789.99744	124.16434	453.94016	-694.12433	141.00299	211.88815	-617.55414	75.74210	165.04318	-572.75494	48.72011	158.38934	-493.87933	93.23186	160.99774	-532.97095	143.22910	165.43524	-642.24597	213.55161	225.55997	-593.70276	185.89006	174.13062	-718.19940	211.11340	170.47089	-713.00165	433.72177	871.01129	-663.20886	371.60205	828.79718	-743.36230	446.09015	738.79828	-750.49231	418.55405	612.72217	-711.71436	312.43588	568.50775	-745.27124	416.02316	552.07251	-689.18982	371.95123	539.95770	-785.37006	424.35089	490.77289	-685.05762	419.66028	211.44188	-584.74127	468.83279	163.88278	-545.79144	480.41946	158.70755	-488.76910	427.40176	166.79405	-525.79889	387.66122	176.89159	-648.76556	330.38434	210.35727	-595.63361	350.01813	171.71571	-731.04736	345.72144	165.91568	-443.91467	448.94983	146.81500	-450.70450	74.99899	144.65880	-806.35547	82.71621	142.56256	-799.26495	457.86978	145.34813	
126	2.500	-100.01349	227.78687	1415.98523	-302.74734	56.93383	1203.30090	-303.62686	415.78641	1213.92041	-392.29156	255.84175	1252.45288	-673.17706	162.95274	1007.45795	-521.00934	387.16580	1032.71399	-855.05048	249.94287	1095.65344	-736.71002	92.18267	878.41663	-679.96820	147.71043	833.05414	-772.21606	86.23464	733.55670	-750.37323	122.79724	595.97900	-723.96356	227.17033	558.26367	-769.42944	122.32929	527.33179	-688.09723	170.95903	546.31531	-791.58136	124.08669	453.43262	-694.36389	140.96175	211.62349	-617.64423	75.66879	164.95662	-572.83521	48.64937	158.33574	-493.97250	93.29993	161.03458	-533.06195	143.15092	165.53987	-642.21588	213.39355	226.33383	-593.64703	185.52467	174.70230	-718.29132	210.98213	170.43781	-715.69098	433.97873	870.44904	-665.87628	371.79779	827.86884	-746.02972	446.30963	738.08752	-752.28888	418.85861	612.16174	-713.58411	312.56387	568.16779	-746.93878	416.35800	551.88678	-690.81909	372.13199	539.79694	-786.67719	424.74860	490.22470	-685.12042	420.27554	211.77267	-584.62646	468.83899	163.73544	-545.69043	480.43933	158.67952	-488.77292	427.37863	166.82091	-525.89044	387.63712	176.88554	-648.73291	330.25571	210.19803	-595.52887	350.16589	171.84276	-730.93823	345.90189	165.97516	-443.86948	448.99503	146.79369	-450.66278	75.08140	144.63055	-806.33307	82.65515	142.59209	-799.31927	457.81213	145.28670	
127	2.520	-96.44318	227.80957	1401.47791	-299.02621	57.42822	1190.38281	-299.49121	414.56882	1200.28345	-390.11963	255.81145	1248.63647	-675.20270	163.74951	1005.83118	-507.22415	388.49008	1033.08582	-855.86646	249.93350	1096.73022	-739.99780	91.84379	878.00946	-683.11102	147.65359	832.26526	-775.10193	86.49303	732.71912	-752.33282	122.70268	595.53937	-725.65631	227.02408	557.85870	-771.08533	122.31387	526.87012	-689.57703	170.83807	546.21075	-793.00775	124.08516	452.94562	-694.54065	140.92484	211.43845	-617.68573	75.62639	164.91267	-572.89771	48.59885	158.27698	-494.03632	93.37772	161.06821	-533.16272	143.08607	165.61057	-642.34247	213.30058	226.69339	-593.61328	185.27663	175.13689	-718.36810	210.89233	170.41229	-718.39972	434.20648	869.85901	-668.59711	371.90918	827.14160	-748.57593	446.44128	737.34924	-754.12012	419.07440	611.62799	-715.45020	312.69827	567.84631	-748.62585	416.56567	551.63971	-692.44714	372.31995	539.64264	-787.89673	424.95425	489.60767	-685.17889	420.91278	212.30423	-584.57922	468.82568	163.70348	-545.60034	480.46136	158.67735	-488.80734	427.35663	166.86320	-526.03137	387.64798	176.85133	-648.69104	330.15128	210.05960	-595.44116	350.28036	171.93164	-730.92267	345.98944	166.10185	-443.74725	449.04703	146.76308	-450.60550	75.18034	144.58772	-806.33502	82.63022	142.59953	-799.32458	457.78311	145.26372	
128	2.540	-93.20917	228.02834	1387.22412	-295.65088	58.00080	1177.74670	-295.81097	413.39670	1186.92310	-387.99585	255.78766	1244.84229	-677.19757	164.49393	1004.24792	-493.02698	389.84653	1033.52930	-856.55707	249.83939	1097.70532	-742.97595	91.58341	877.48309	-685.99017	147.59253	831.52441	-777.84241	86.69566	731.89246	-754.12415	122.60616	595.12140	-727.27191	226.90012	557.41016	-772.56165	122.28592	526.38330	-690.86713	170.67966	546.13837	-794.27594	124.07709	452.47586	-694.68817	140.88275	211.30968	-617.69342	75.61407	164.89931	-572.92584	48.58319	158.23526	-494.07529	93.44524	161.09161	-533.26025	143.03949	165.65459	-642.58807	213.27486	226.74057	-593.60870	185.16386	175.34491	-718.43329	210.83261	170.37671	-721.11340	434.35565	869.19940	-671.25720	371.93338	826.56598	-751.02332	446.39038	736.52148	-755.90106	419.17990	611.12231	-717.23987	312.81848	567.48718	-750.22003	416.67941	551.21753	-694.00775	372.46866	539.43823	-789.06506	425.01050	488.96747	-685.22858	421.33844	212.89243	-584.56091	468.80276	163.74399	-545.53473	480.46738	158.71571	-488.86630	427.32462	166.92044	-526.18378	387.64975	176.78322	-648.64258	330.07312	209.94444	-595.36682	350.34180	171.92450	-730.99200	345.93665	166.26598	-443.62207	449.07819	146.75856	-450.56134	75.25019	144.54544	-806.33911	82.62170	142.60416	-799.28082	457.78720	145.29300	
129	2.560	-90.29541	228.38835	1373.33289	-292.61801	58.66264	1165.44336	-292.63843	412.25330	1173.94165	-385.92059	255.77022	1241.07227	-679.16132	165.18707	1002.70789	-478.49402	391.22913	1034.03723	-857.15820	249.64702	1098.55469	-745.66504	91.38057	876.88641	-688.59711	147.49239	830.90424	-780.45068	86.76649	731.05139	-755.73895	122.46844	594.70752	-728.81256	226.79733	556.92407	-773.88629	122.15190	525.88910	-692.10394	170.49878	546.00940	-795.42297	123.93926	452.01447	-694.84839	140.76378	211.22464	-617.70508	75.59920	164.86493	-572.92981	48.59131	158.21544	-494.09103	93.50037	161.09390	-533.35614	143.00060	165.69124	-642.89691	213.28474	226.70343	-593.66296	185.10794	175.36710	-718.50287	210.76413	170.32767	-723.79712	434.44806	868.50720	-673.79944	371.90164	826.00452	-753.44373	446.18723	735.65070	-757.54504	419.27216	610.66138	-718.84521	312.89429	567.05157	-751.65112	416.76770	550.70978	-695.43872	372.53799	539.18298	-790.18134	425.01834	488.36093	-685.26385	421.49280	213.47275	-584.53473	468.76660	163.80046	-545.50092	480.44278	158.77289	-488.93121	427.28293	166.98175	-526.31787	387.63770	176.70633	-648.58710	330.01843	209.84975	-595.30945	350.36661	171.85985	-731.07623	345.82150	166.39719	-443.54758	449.08472	146.80267	-450.54318	75.27669	144.53937	-806.33112	82.62417	142.60255	-799.19904	457.81268	145.37308	
130	2.580	-87.69232	228.84096	1359.87158	-289.91159	59.38395	1153.52271	-289.98889	411.14859	1161.43616	-383.89417	255.75896	1237.32788	-681.09363	165.83002	1001.21094	-463.70135	392.63184	1034.60193	-857.67786	249.36116	1099.29236	-748.12469	91.21826	876.25507	-690.94501	147.29443	830.49335	-782.87390	86.74963	730.19635	-757.21576	122.27339	594.29376	-730.28052	226.71457	556.40656	-775.12012	121.87701	525.44440	-693.37891	170.27086	545.79089	-796.50793	123.64268	451.55286	-695.03638	140.51994	211.19220	-617.75806	75.54486	164.78101	-572.92639	48.60367	158.21365	-494.09100	93.56078	161.07352	-533.45886	142.96355	165.72058	-643.22864	213.27274	226.73698	-593.82019	185.04004	175.28467	-718.56476	210.67357	170.27983	-726.38000	434.56131	867.87726	-676.22479	371.88083	825.40735	-755.87469	445.93384	734.82001	-759.02234	419.42276	610.25928	-720.21558	312.93323	566.53668	-752.91858	416.86465	550.27612	-696.71326	372.51465	538.93781	-791.20972	425.05450	487.82059	-685.25507	421.48511	214.02263	-584.47961	468.72266	163.83829	-545.47876	480.38217	158.82527	-488.98959	427.23013	167.03287	-526.42200	387.63229	176.66322	-648.52405	329.98416	209.77251	-595.27277	350.39389	171.82104	-731.11285	345.82495	166.37305	-443.52863	449.07947	146.87471	-450.55161	75.28457	144.57425	-806.31134	82.64354	142.57774	-799.10516	457.85007	145.47911	
